# xmcd
#
# Track frame offsets:
#	150
#	14839
#	31847
#	47858
#	60585
#	80930
#	96626
#	108742
#	141737
#	159525
#	183745
#	203506
#
# Disc length: 2948 seconds
#
# Revision: 1
# Processed by: cddbd v1.5.2PL0 Copyright (c) Steve Scherf et al.
# Submitted via: audiograbber 1.83.01
#
DISCID=b90b820c
DTITLE=Jamey Johnson - The Guitar Song CD1
DYEAR=2010
DGENRE=Country
TTITLE0=Lonely At The Top
TTITLE1=Cover Your Eyes
TTITLE2=Poor Man Blues
TTITLE3=Set 'em Up Joe
TTITLE4=Playing The Part
TTITLE5=Baby Don't Cry
TTITLE6=Heaven Bound
TTITLE7=Can't Cash My Checks
TTITLE8=That's How I Don't Love You
TTITLE9=Heartache
TTITLE10=Mental Revenge
TTITLE11=Even The Skies Are Blue
EXTD=
EXTT0=
EXTT1=
EXTT2=
EXTT3=
EXTT4=
EXTT5=
EXTT6=
EXTT7=
EXTT8=
EXTT9=
EXTT10=
EXTT11=
PLAYORDER=
